<svg width="36" height="20" viewBox="0 0 36 20" fill="none" xmlns="http://www.w3.org/2000/svg">
<path d="M18 19.1624C8.26709 19.1624 0.56102 10.5743 0.237582 10.2088C-0.0791941 9.85041 -0.0791941 9.31197 0.237582 8.95356C0.56102 8.58812 8.26709 0 18 0C27.7329 0 35.439 8.58812 35.7624 8.95356C36.0792 9.31197 36.0792 9.85041 35.7624 10.2088C35.439 10.5743 27.7329 19.1624 18 19.1624ZM2.26018 9.58119C4.20117 11.5183 10.5876 17.2676 18 17.2676C25.4124 17.2676 31.7988 11.5183 33.7398 9.58119C31.7988 7.64408 25.4124 1.89474 18 1.89474C10.5876 1.89474 4.20117 7.64408 2.26018 9.58119Z" fill="black"/>
<path d="M17.8475 15.8457C14.3484 15.8457 11.5018 12.999 11.5018 9.49998C11.5018 6.00094 14.3484 3.1543 17.8475 3.1543C21.3465 3.1543 24.1932 6.00094 24.1932 9.49998C24.1932 12.999 21.3465 15.8457 17.8475 15.8457ZM17.8475 5.03298C15.3843 5.03298 13.3805 7.03678 13.3805 9.49998C13.3805 11.9632 15.3843 13.967 17.8475 13.967C20.3107 13.967 22.3145 11.9632 22.3145 9.49998C22.3145 7.03678 20.3107 5.03298 17.8475 5.03298Z" fill="black"/>
</svg>
