<svg width="24" height="36" viewBox="0 0 24 36" fill="none" xmlns="http://www.w3.org/2000/svg">
<path d="M9.73328 0.057766C7.83322 0.222883 5.99323 0.805111 4.34503 1.76277C2.69682 2.72044 1.28116 4.02985 0.199373 5.59729C0.117375 5.71005 0.0588331 5.83805 0.0271989 5.97375C-0.00443518 6.10945 -0.00852079 6.25009 0.0151823 6.38739C0.0388855 6.52469 0.0898975 6.65586 0.165211 6.77317C0.240525 6.89048 0.338616 6.99156 0.453699 7.07044C0.568782 7.14932 0.698528 7.20441 0.835286 7.23246C0.972044 7.26051 1.11305 7.26095 1.24998 7.23376C1.38691 7.20656 1.517 7.15229 1.63258 7.07413C1.74815 6.99597 1.84687 6.8955 1.92292 6.77867C2.83218 5.46549 4.02112 4.36914 5.40462 3.56808C6.78813 2.76702 8.332 2.28107 9.92572 2.145C12.406 1.91048 14.8922 2.52745 16.9734 3.89394C19.0547 5.26044 20.6064 7.29465 21.3721 9.66038C22.1378 12.0261 22.0717 14.5817 21.1846 16.9049C20.2976 19.228 18.6428 21.1796 16.4936 22.4371C14.235 23.7384 12.3593 25.6101 11.0552 27.8639L11.0218 27.9265C10.5604 28.7797 10.2077 29.687 9.97173 30.6274C9.70837 31.603 9.11988 32.4599 8.30319 33.0571C7.48651 33.6543 6.49034 33.956 5.47879 33.9127C4.78401 33.8793 4.10642 33.6859 3.49898 33.3477C2.89155 33.0095 2.37075 32.5357 1.97731 31.9633C1.89902 31.8506 1.79927 31.7544 1.68374 31.6803C1.56821 31.6061 1.43917 31.5553 1.30398 31.5309C1.1688 31.5065 1.03012 31.5089 0.895857 31.5379C0.761597 31.567 0.634388 31.6221 0.521493 31.7003C0.408598 31.7784 0.312227 31.8779 0.237884 31.9932C0.16354 32.1085 0.112681 32.2373 0.0882075 32.3722C0.0637344 32.507 0.0661271 32.6454 0.0952499 32.7794C0.124373 32.9134 0.179655 33.0403 0.25794 33.153C0.836649 33.9912 1.60194 34.6845 2.4939 35.1784C3.38586 35.6723 4.38028 35.9535 5.39931 36H5.65449C7.09447 36.0045 8.49563 35.5343 9.64023 34.6624C10.7848 33.7905 11.6087 32.5657 11.9839 31.1785C12.1784 30.4069 12.4678 29.6624 12.8457 28.9618L12.8792 28.8992C14.0007 26.962 15.6138 25.3537 17.5562 24.2363C20.1167 22.7381 22.0883 20.413 23.1453 17.6452C24.2022 14.8775 24.2813 11.8327 23.3693 9.01406C22.4573 6.19541 20.6089 3.77159 18.1296 2.14313C15.6503 0.514665 12.6883 -0.220977 9.73328 0.057766Z" fill="black"/>
<path d="M6.16496 18.1457L2.4851 20.3527C2.25412 20.497 2.08976 20.7251 2.02745 20.988C1.96514 21.2509 2.00986 21.5274 2.15199 21.758C2.29411 21.9887 2.52226 22.1549 2.78725 22.2208C3.05224 22.2868 3.33286 22.2473 3.56864 22.1108L7.24432 19.9039C8.03395 19.4325 8.63858 18.7107 8.95955 17.8562C9.28052 17.0017 9.29889 16.0649 9.01166 15.1987C8.72442 14.3325 8.14854 13.5881 7.37799 13.0869C6.60743 12.5857 5.6877 12.3573 4.76886 12.439C4.84312 12.1672 4.94216 11.9026 5.06475 11.6485C5.52617 10.673 6.23548 9.83216 7.12357 9.208C8.01167 8.58384 9.04827 8.1976 10.1324 8.08693H10.1907C11.3805 7.96876 12.5754 8.25701 13.5763 8.90363C14.5771 9.55025 15.3234 10.5162 15.6909 11.6405C16.0583 12.7648 16.0247 13.9796 15.5957 15.0824C15.1666 16.1852 14.368 17.1094 13.333 17.7011C9.83231 19.7598 7.49854 22.4072 6.36916 25.5982C6.31853 25.7271 6.2947 25.8648 6.2991 26.003C6.3035 26.1412 6.33604 26.2771 6.39478 26.4027C6.45351 26.5282 6.53725 26.6407 6.64097 26.7335C6.7447 26.8264 6.86629 26.8976 6.99849 26.943C7.1307 26.9884 7.2708 27.007 7.41044 26.9977C7.55008 26.9884 7.6864 26.9514 7.81125 26.8889C7.9361 26.8264 8.04693 26.7397 8.13712 26.634C8.22732 26.5283 8.29502 26.4056 8.33619 26.2735C9.29887 23.4984 11.2742 21.2873 14.3832 19.4674C15.8204 18.6349 16.9272 17.3427 17.5204 15.8045C18.1136 14.2663 18.1578 12.5742 17.6457 11.0078C17.1336 9.44139 16.0958 8.09454 14.7039 7.18986C13.312 6.28518 11.6493 5.87685 9.99067 6.03234H9.92816C8.48663 6.17725 7.1075 6.68785 5.92459 7.51461C4.74168 8.34136 3.79516 9.45618 3.1769 10.7509C2.70345 11.7372 2.47895 12.8223 2.52261 13.913C2.53339 14.0905 2.59032 14.2622 2.68788 14.4115C2.78545 14.5609 2.92036 14.6829 3.07957 14.7656C3.23879 14.8484 3.41692 14.8893 3.59677 14.8842C3.77662 14.8791 3.95209 14.8282 4.10624 14.7365C4.33281 14.603 4.58379 14.5148 4.84485 14.4771C5.1059 14.4394 5.37192 14.4528 5.62772 14.5167C5.88351 14.5805 6.12407 14.6935 6.33567 14.8492C6.54726 15.0049 6.72574 15.2003 6.86092 15.4241C6.9961 15.648 7.08532 15.896 7.12351 16.1539C7.16169 16.4118 7.14808 16.6746 7.08345 16.9273C7.01882 17.1801 6.90445 17.4177 6.74685 17.6268C6.58926 17.8358 6.39153 18.0122 6.16496 18.1457Z" fill="black"/>
</svg>
